# xmcd
#
# Track frame offsets:
#	182
#	18157
#	45242
#	63227
#	81707
#	105827
#
# Disc length: 1668 seconds
#
# Revision: 1
# Processed by: cddbd v1.4PL0 Copyright (c) Steve Scherf et al.
# Submitted via: EasyCDDAExtractor 6.0.0.1
#
DISCID=3b068206
DTITLE=Lisa Stansfield - Make It Right
DYEAR=1900
DGENRE=
TTITLE0=Make It Right(Kenny Dope Remix)
TTITLE1=Make It Right(Kenny Dope Extended Remix)
TTITLE2=Make It Right(Single Version)
TTITLE3=Make It Right(R. Kelly Remix No. 1)
TTITLE4=Make It Right(R. Kelly Extended Groove Remix)
TTITLE5=Make It Right(Rhetro G-Mix)
EXTD=
EXTT0=
EXTT1=
EXTT2=
EXTT3=
EXTT4=
EXTT5=
PLAYORDER=
